<svg width="201px" height="200px" viewBox="0 0 201 200" version="1.1" xmlns="http://www.w3.org/2000/svg" xmlns:xlink="http://www.w3.org/1999/xlink">
    <g id="Page-1" stroke="none" stroke-width="1" fill="none" fill-rule="evenodd">
        <circle id="Oval" fill="#000000" transform="translate(101.719470, 95.804492) rotate(-30.000000) translate(-101.719470, -95.804492) " cx="101.71947" cy="95.8044918" r="40"></circle>
        <path d="M84.7176451,76.4267849 C94.2391792,68.4813962 102.665817,50.5167316 102.707358,35.791393 C102.758976,17.4941497 91.0179365,6.42678492 65.3482623,6.42678492 C39.6370068,6.42678492 27.8380413,17.419909 27.9044565,35.5659817 C27.9583915,50.3022304 36.553903,68.2446298 46.4778283,76.4267849 L84.7176451,76.4267849 Z" id="Path" stroke="#000000" stroke-width="5" fill-opacity="0" fill="#FFFFFF" transform="translate(65.305855, 41.426785) rotate(-30.000000) translate(-65.305855, -41.426785) "></path>
        <path d="M116.014686,196.465431 C125.53622,188.520042 133.962859,170.555377 134.0044,155.830039 C134.056017,137.532796 122.314978,126.465431 96.6453036,126.465431 C70.9340481,126.465431 59.1350826,137.458555 59.2014977,155.604628 C59.2554328,170.340876 67.8509443,188.283276 77.7748696,196.465431 L116.014686,196.465431 Z" id="Path" stroke="#000000" stroke-width="5" fill-opacity="0" fill="#FFFFFF" transform="translate(96.602896, 161.465431) rotate(-174.000000) translate(-96.602896, -161.465431) "></path>
        <path d="M179.899214,158.704609 C189.420748,150.75922 197.847386,132.794555 197.888927,118.069217 C197.940544,99.7719733 186.199505,88.7046085 160.529831,88.7046085 C134.818575,88.7046085 123.01961,99.6977326 123.086025,117.843805 C123.13996,132.580054 131.735472,150.522453 141.659397,158.704609 L179.899214,158.704609 Z" id="Path" stroke="#000000" stroke-width="5" fill-opacity="0" fill="#FFFFFF" transform="translate(160.487424, 123.704609) rotate(114.000000) translate(-160.487424, -123.704609) "></path>
        <path d="M58.3883475,145.826406 C67.9098816,137.881017 76.3365198,119.916353 76.3780607,105.191014 C76.4296782,86.8937706 64.6886389,75.8264059 39.0189647,75.8264059 C13.3077092,75.8264059 1.50874375,86.81953 1.57515887,104.965603 C1.62909393,119.701851 10.2246055,137.644251 20.1485307,145.826406 L58.3883475,145.826406 Z" id="Path" stroke="#000000" stroke-width="5" fill-opacity="0" fill="#FFFFFF" transform="translate(38.976558, 110.826406) rotate(-102.000000) translate(-38.976558, -110.826406) "></path>
        <path d="M163.156903,86.567356 C172.678437,78.6219673 181.105076,60.6573026 181.146616,45.9319641 C181.198234,27.6347207 169.457195,16.567356 143.78752,16.567356 C118.076265,16.567356 106.277299,27.5604801 106.343715,45.7065527 C106.39765,60.4428014 114.993161,78.3852008 124.917086,86.567356 L163.156903,86.567356 Z" id="Path" stroke="#000000" stroke-width="5" fill-opacity="0" fill="#FFFFFF" transform="translate(143.745113, 51.567356) rotate(42.000000) translate(-143.745113, -51.567356) "></path>
    </g>
</svg>
